# xmcd CD database file
#
# Track frame offsets:
#	150
#	26554
#	45799
#	65747
#	85955
#	99776
#	119768
#	138728
#	154587
#	174609
#
# Disc length: 2677 seconds
#
# Revision: 0
# Processed by: cddbd v1.5.1PL0 Copyright (c) Steve Scherf et al.
# Submitted via: CDex 1.51
#
DISCID=800a730a
DTITLE=Various Artist - マーメイドメロディーぴちぴちピッチピュア ピュアBox2
DYEAR=2004
DGENRE=Anime
TTITLE0=中田あすみ・寺門仁美・浅野まゆみ/希望の鐘音 〜Love goes on〜
TTITLE1=皆川純子/翼を抱いて
TTITLE2=浅野まゆみ/七つの海の物語（リナソロバージョン）
TTITLE3=喜多村英梨/Beautiful Wish
TTITLE4=倉田雅世/Star☆メロメロ Heart
TTITLE5=寺門仁美/七つの海の物語（波音ソロバージョン）
TTITLE6=新谷良子/明日が見えなくて
TTITLE7=喜多村英梨/Birth of Love
TTITLE8=中田あすみ/七つの海の物語（るちあソロバージョン）
TTITLE9=中田あすみ・寺門仁美・浅野まゆみ・喜多村英梨・木暮英麻・永田亮子・新井里美/希望の鐘音 〜Love goes on〜 7Mermaid Version
EXTD=YEAR: 2004
EXTT0=
EXTT1=
EXTT2=
EXTT3=
EXTT4=
EXTT5=
EXTT6=
EXTT7=
EXTT8=
EXTT9=
PLAYORDER=
